<?xml version="1.0" encoding="UTF-8" standalone="no"?>
<!DOCTYPE svg PUBLIC "-//W3C//DTD SVG 1.1//EN" "http://www.w3.org/Graphics/SVG/1.1/DTD/svg11.dtd">
<svg width="100%" height="100%" viewBox="0 0 4394 1687" version="1.1" xmlns="http://www.w3.org/2000/svg" xmlns:xlink="http://www.w3.org/1999/xlink" xml:space="preserve" xmlns:serif="http://www.serif.com/" style="fill-rule:evenodd;clip-rule:evenodd;stroke-linejoin:round;stroke-miterlimit:2;">
    <g transform="matrix(4.16667,0,0,4.16667,-1119.22,-327.94)">
        <g>
            <g transform="matrix(144,0,0,144,252.196,185.554)">
                <path d="M0.841,-0.7L0.841,-0L0.77,-0L0.77,-0.56L0.495,-0.089L0.46,-0.089L0.185,-0.557L0.185,-0L0.114,-0L0.114,-0.7L0.175,-0.7L0.479,-0.181L0.78,-0.7L0.841,-0.7Z" style="fill:white;fill-rule:nonzero;"/>
            </g>
            <g transform="matrix(144,0,0,144,389.716,185.554)">
                <path d="M0.283,-0.53C0.352,-0.53 0.404,-0.513 0.441,-0.478C0.478,-0.444 0.496,-0.393 0.496,-0.326L0.496,-0L0.428,-0L0.428,-0.082C0.412,-0.055 0.389,-0.033 0.358,-0.018C0.327,-0.003 0.29,0.005 0.247,0.005C0.188,0.005 0.142,-0.009 0.107,-0.037C0.072,-0.065 0.055,-0.102 0.055,-0.148C0.055,-0.193 0.071,-0.229 0.103,-0.256C0.136,-0.283 0.187,-0.297 0.258,-0.297L0.425,-0.297L0.425,-0.329C0.425,-0.374 0.412,-0.409 0.387,-0.433C0.362,-0.456 0.325,-0.468 0.276,-0.468C0.243,-0.468 0.211,-0.463 0.18,-0.452C0.149,-0.441 0.123,-0.425 0.101,-0.406L0.069,-0.459C0.096,-0.482 0.128,-0.499 0.165,-0.511C0.202,-0.524 0.242,-0.53 0.283,-0.53ZM0.258,-0.051C0.298,-0.051 0.332,-0.06 0.361,-0.079C0.39,-0.097 0.411,-0.123 0.425,-0.158L0.425,-0.244L0.26,-0.244C0.17,-0.244 0.125,-0.213 0.125,-0.15C0.125,-0.119 0.137,-0.095 0.16,-0.078C0.183,-0.06 0.216,-0.051 0.258,-0.051Z" style="fill:white;fill-rule:nonzero;"/>
            </g>
            <g transform="matrix(144,0,0,144,474.964,185.554)">
                <path d="M0.579,-0.742L0.579,-0L0.511,-0L0.511,-0.104C0.49,-0.069 0.462,-0.042 0.427,-0.023C0.392,-0.004 0.352,0.005 0.308,0.005C0.259,0.005 0.214,-0.006 0.174,-0.029C0.134,-0.052 0.103,-0.083 0.08,-0.124C0.057,-0.165 0.046,-0.211 0.046,-0.263C0.046,-0.315 0.057,-0.361 0.08,-0.402C0.103,-0.443 0.134,-0.474 0.174,-0.497C0.214,-0.519 0.259,-0.53 0.308,-0.53C0.351,-0.53 0.389,-0.521 0.424,-0.503C0.458,-0.486 0.486,-0.46 0.508,-0.426L0.508,-0.742L0.579,-0.742ZM0.314,-0.058C0.351,-0.058 0.384,-0.067 0.413,-0.084C0.443,-0.101 0.467,-0.125 0.484,-0.156C0.5,-0.187 0.509,-0.223 0.509,-0.263C0.509,-0.303 0.5,-0.339 0.484,-0.37C0.467,-0.401 0.443,-0.426 0.413,-0.443C0.384,-0.46 0.351,-0.468 0.314,-0.468C0.277,-0.468 0.243,-0.46 0.214,-0.443C0.184,-0.426 0.161,-0.401 0.143,-0.37C0.127,-0.339 0.118,-0.303 0.118,-0.263C0.118,-0.223 0.127,-0.187 0.143,-0.156C0.161,-0.125 0.184,-0.101 0.214,-0.084C0.243,-0.067 0.277,-0.058 0.314,-0.058Z" style="fill:white;fill-rule:nonzero;"/>
            </g>
            <g transform="matrix(144,0,0,144,572.596,185.554)">
                <path d="M0.557,-0.241L0.117,-0.241C0.121,-0.186 0.142,-0.142 0.18,-0.109C0.218,-0.075 0.266,-0.058 0.324,-0.058C0.357,-0.058 0.387,-0.064 0.414,-0.076C0.441,-0.087 0.465,-0.104 0.485,-0.127L0.525,-0.081C0.502,-0.053 0.472,-0.032 0.438,-0.017C0.403,-0.002 0.364,0.005 0.322,0.005C0.268,0.005 0.22,-0.007 0.179,-0.029C0.137,-0.053 0.104,-0.084 0.081,-0.125C0.058,-0.166 0.046,-0.212 0.046,-0.263C0.046,-0.314 0.057,-0.36 0.08,-0.401C0.102,-0.442 0.133,-0.473 0.172,-0.496C0.211,-0.519 0.254,-0.53 0.303,-0.53C0.352,-0.53 0.395,-0.519 0.434,-0.496C0.473,-0.473 0.503,-0.442 0.525,-0.402C0.547,-0.361 0.558,-0.315 0.558,-0.263L0.557,-0.241ZM0.303,-0.469C0.252,-0.469 0.21,-0.453 0.175,-0.421C0.141,-0.388 0.122,-0.346 0.117,-0.294L0.49,-0.294C0.485,-0.346 0.466,-0.388 0.432,-0.421C0.397,-0.453 0.354,-0.469 0.303,-0.469Z" style="fill:white;fill-rule:nonzero;"/>
            </g>
            <g transform="matrix(144,0,0,144,697.3,185.554)">
                <path d="M0.37,-0.53C0.419,-0.53 0.464,-0.519 0.504,-0.497C0.544,-0.474 0.575,-0.443 0.598,-0.402C0.621,-0.361 0.632,-0.315 0.632,-0.263C0.632,-0.211 0.621,-0.165 0.598,-0.124C0.575,-0.083 0.544,-0.052 0.504,-0.029C0.464,-0.006 0.419,0.005 0.37,0.005C0.326,0.005 0.286,-0.004 0.252,-0.023C0.217,-0.042 0.188,-0.069 0.167,-0.104L0.167,-0L0.099,-0L0.099,-0.742L0.17,-0.742L0.17,-0.426C0.192,-0.46 0.22,-0.486 0.255,-0.503C0.289,-0.521 0.327,-0.53 0.37,-0.53ZM0.365,-0.058C0.402,-0.058 0.435,-0.067 0.465,-0.084C0.495,-0.101 0.519,-0.125 0.536,-0.156C0.553,-0.187 0.561,-0.223 0.561,-0.263C0.561,-0.303 0.553,-0.339 0.536,-0.37C0.519,-0.401 0.495,-0.426 0.465,-0.443C0.435,-0.46 0.402,-0.468 0.365,-0.468C0.328,-0.468 0.294,-0.46 0.265,-0.443C0.235,-0.426 0.212,-0.401 0.195,-0.37C0.178,-0.339 0.169,-0.303 0.169,-0.263C0.169,-0.223 0.178,-0.187 0.195,-0.156C0.212,-0.125 0.235,-0.101 0.265,-0.084C0.294,-0.067 0.328,-0.058 0.365,-0.058Z" style="fill:white;fill-rule:nonzero;"/>
            </g>
            <g transform="matrix(144,0,0,144,792.772,185.554)">
                <path d="M0.541,-0.526L0.278,0.063C0.257,0.112 0.232,0.147 0.204,0.168C0.176,0.189 0.142,0.199 0.103,0.199C0.078,0.199 0.054,0.195 0.032,0.187C0.01,0.179 -0.009,0.167 -0.025,0.151L0.008,0.098C0.035,0.125 0.067,0.138 0.104,0.138C0.128,0.138 0.149,0.131 0.166,0.118C0.183,0.105 0.198,0.082 0.213,0.05L0.236,-0.001L0.001,-0.526L0.075,-0.526L0.273,-0.079L0.471,-0.526L0.541,-0.526Z" style="fill:white;fill-rule:nonzero;"/>
            </g>
            <g transform="matrix(1.28207,0,0,1.28207,-150.096,-126.702)">
                <g transform="matrix(270.833,0,0,270.833,268.612,474)">
                    <path d="M0.214,-0.7L0.214,-0.015C0.215,-0.01 0.218,-0 0.235,-0L0.286,-0L0.286,-0.672C0.286,-0.684 0.278,-0.7 0.257,-0.7L0.214,-0.7Z" style="fill:white;fill-rule:nonzero;"/>
                </g>
                <g transform="matrix(270.833,0,0,270.833,404.029,474)">
                    <path d="M0.186,-0.7L0.186,-0L0.325,-0C0.374,-0 0.413,-0.039 0.414,-0.088L0.414,-0.612C0.413,-0.661 0.374,-0.7 0.325,-0.7L0.186,-0.7ZM0.343,-0.108C0.343,-0.081 0.325,-0.071 0.305,-0.071L0.258,-0.071L0.258,-0.628L0.305,-0.628C0.325,-0.628 0.343,-0.618 0.343,-0.592L0.343,-0.108Z" style="fill:white;fill-rule:nonzero;"/>
                </g>
                <g transform="matrix(270.833,0,0,270.833,566.528,474)">
                    <path d="M0.41,-0.618C0.41,-0.666 0.371,-0.705 0.323,-0.707L0.279,-0.707C0.23,-0.707 0.19,-0.667 0.19,-0.618L0.19,-0.082C0.19,-0.033 0.23,0.007 0.279,0.007L0.323,0.007C0.371,0.005 0.41,-0.034 0.41,-0.082L0.41,-0.337C0.41,-0.364 0.397,-0.376 0.375,-0.376L0.285,-0.376L0.309,-0.326C0.309,-0.326 0.319,-0.303 0.335,-0.303L0.338,-0.303L0.338,-0.094C0.338,-0.073 0.321,-0.056 0.3,-0.056C0.279,-0.056 0.262,-0.073 0.262,-0.094L0.262,-0.606C0.262,-0.627 0.279,-0.644 0.3,-0.644C0.321,-0.644 0.338,-0.627 0.338,-0.606L0.338,-0.446C0.357,-0.454 0.385,-0.467 0.39,-0.47C0.4,-0.475 0.41,-0.485 0.41,-0.509L0.41,-0.618Z" style="fill:white;fill-rule:nonzero;"/>
                </g>
                <g transform="matrix(270.833,0,0,270.833,729.028,474)">
                    <path d="M0.425,-0L0.346,-0L0.283,-0.482L0.22,-0L0.141,-0L0.247,-0.7L0.286,-0.7C0.316,-0.7 0.321,-0.681 0.324,-0.662L0.425,-0Z" style="fill:white;fill-rule:nonzero;"/>
                </g>
                <g transform="matrix(270.833,0,0,270.833,880.695,474)">
                    <path d="M0.441,-0.7L0.155,-0.7C0.143,-0.7 0.133,-0.69 0.133,-0.678L0.133,-0.629L0.234,-0.629L0.234,-0.015C0.234,-0.01 0.237,-0 0.254,-0L0.305,-0L0.305,-0.612C0.306,-0.621 0.313,-0.629 0.323,-0.629L0.379,-0.629C0.402,-0.629 0.413,-0.639 0.417,-0.648L0.441,-0.7Z" style="fill:white;fill-rule:nonzero;"/>
                </g>
                <g transform="matrix(270.833,0,0,270.833,1029.65,474)">
                    <path d="M0.291,-0.071L0.291,-0.314C0.291,-0.323 0.299,-0.331 0.308,-0.331L0.338,-0.331C0.361,-0.331 0.371,-0.341 0.376,-0.35C0.379,-0.356 0.391,-0.385 0.399,-0.403L0.291,-0.403L0.291,-0.611C0.291,-0.621 0.298,-0.628 0.308,-0.628L0.366,-0.628C0.389,-0.628 0.4,-0.639 0.404,-0.648L0.428,-0.7L0.241,-0.7C0.229,-0.7 0.22,-0.691 0.219,-0.68L0.219,-0L0.379,-0C0.402,-0 0.413,-0.01 0.418,-0.019C0.421,-0.025 0.433,-0.053 0.441,-0.071L0.291,-0.071Z" style="fill:white;fill-rule:nonzero;"/>
                </g>
            </g>
        </g>
    </g>
</svg>
